REM DIRINDEX 1\2,1\3
REM DIRNAME folder01,folder02,folder03
TITLE ""
FILE "2461-2480.mp3" MP3
  TRACK 01 AUDIO
    TITLE "0:"
    INDEX 01 00:00:00
  TRACK 02 AUDIO
    TITLE "2:cjc039_3921"
    INDEX 01 00:00:25
  TRACK 03 AUDIO
    TITLE "0:"
    INDEX 01 00:01:32
  TRACK 04 AUDIO
    TITLE "3:cjc039_3922"
    INDEX 01 00:02:08
  TRACK 05 AUDIO
    TITLE "0:"
    INDEX 01 00:04:60
  TRACK 06 AUDIO
    TITLE "2:cjc039_3923"
    INDEX 01 00:06:35
  TRACK 07 AUDIO
    TITLE "0:"
    INDEX 01 00:07:52
  TRACK 08 AUDIO
    TITLE "3:cjc039_3924"
    INDEX 01 00:08:32
  TRACK 09 AUDIO
    TITLE "0:"
    INDEX 01 00:11:46
  TRACK 10 AUDIO
    TITLE "2:cjc039_3925"
    INDEX 01 00:13:22
  TRACK 11 AUDIO
    TITLE "0:"
    INDEX 01 00:14:17
  TRACK 12 AUDIO
    TITLE "3:cjc039_3926"
    INDEX 01 00:14:74
  TRACK 13 AUDIO
    TITLE "0:"
    INDEX 01 00:17:33
  TRACK 14 AUDIO
    TITLE "2:cjc039_3927"
    INDEX 01 00:19:05
  TRACK 15 AUDIO
    TITLE "0:"
    INDEX 01 00:20:18
  TRACK 16 AUDIO
    TITLE "3:cjc039_3928"
    INDEX 01 00:20:73
  TRACK 17 AUDIO
    TITLE "0:"
    INDEX 01 00:24:24
  TRACK 18 AUDIO
    TITLE "2:cjc039_3929"
    INDEX 01 00:25:74
  TRACK 19 AUDIO
    TITLE "0:"
    INDEX 01 00:27:00
  TRACK 20 AUDIO
    TITLE "3:cjc039_3930"
    INDEX 01 00:27:55
  TRACK 21 AUDIO
    TITLE "0:"
    INDEX 01 00:30:30
  TRACK 22 AUDIO
    TITLE "2:cjc039_3931"
    INDEX 01 00:32:05
  TRACK 23 AUDIO
    TITLE "0:"
    INDEX 01 00:33:24
  TRACK 24 AUDIO
    TITLE "3:cjc039_3932"
    INDEX 01 00:34:00
  TRACK 25 AUDIO
    TITLE "0:"
    INDEX 01 00:37:40
  TRACK 26 AUDIO
    TITLE "2:cjc039_3933"
    INDEX 01 00:39:15
  TRACK 27 AUDIO
    TITLE "0:"
    INDEX 01 00:40:36
  TRACK 28 AUDIO
    TITLE "3:cjc039_3934"
    INDEX 01 00:41:16
  TRACK 29 AUDIO
    TITLE "0:"
    INDEX 01 00:44:54
  TRACK 30 AUDIO
    TITLE "2:cjc039_3935"
    INDEX 01 00:46:27
  TRACK 31 AUDIO
    TITLE "0:"
    INDEX 01 00:47:54
  TRACK 32 AUDIO
    TITLE "3:cjc039_3936"
    INDEX 01 00:48:34
  TRACK 33 AUDIO
    TITLE "0:"
    INDEX 01 00:52:36
  TRACK 34 AUDIO
    TITLE "2:cjc039_3937"
    INDEX 01 00:54:11
  TRACK 35 AUDIO
    TITLE "0:"
    INDEX 01 00:55:06
  TRACK 36 AUDIO
    TITLE "3:cjc039_3938"
    INDEX 01 00:55:63
  TRACK 37 AUDIO
    TITLE "0:"
    INDEX 01 00:58:73
  TRACK 38 AUDIO
    TITLE "2:cjc039_3939"
    INDEX 01 01:00:43
  TRACK 39 AUDIO
    TITLE "0:"
    INDEX 01 01:01:72
  TRACK 40 AUDIO
    TITLE "3:cjc039_3940"
    INDEX 01 01:02:48
  TRACK 41 AUDIO
    TITLE "0:"
    INDEX 01 01:06:24
  TRACK 42 AUDIO
    TITLE "2:cjc039_3941"
    INDEX 01 01:08:05
  TRACK 43 AUDIO
    TITLE "0:"
    INDEX 01 01:09:16
  TRACK 44 AUDIO
    TITLE "3:cjc039_3942"
    INDEX 01 01:09:71
  TRACK 45 AUDIO
    TITLE "0:"
    INDEX 01 01:12:71
  TRACK 46 AUDIO
    TITLE "2:cjc039_3943"
    INDEX 01 01:14:49
  TRACK 47 AUDIO
    TITLE "0:"
    INDEX 01 01:16:03
  TRACK 48 AUDIO
    TITLE "3:cjc039_3944"
    INDEX 01 01:16:52
  TRACK 49 AUDIO
    TITLE "0:"
    INDEX 01 01:20:42
  TRACK 50 AUDIO
    TITLE "2:cjc039_3945"
    INDEX 01 01:22:21
  TRACK 51 AUDIO
    TITLE "0:"
    INDEX 01 01:23:30
  TRACK 52 AUDIO
    TITLE "3:cjc039_3946"
    INDEX 01 01:24:04
  TRACK 53 AUDIO
    TITLE "0:"
    INDEX 01 01:26:70
  TRACK 54 AUDIO
    TITLE "2:cjc039_3947"
    INDEX 01 01:28:43
  TRACK 55 AUDIO
    TITLE "0:"
    INDEX 01 01:29:66
  TRACK 56 AUDIO
    TITLE "3:cjc039_3948"
    INDEX 01 01:30:42
  TRACK 57 AUDIO
    TITLE "0:"
    INDEX 01 01:33:15
  TRACK 58 AUDIO
    TITLE "2:cjc039_3949"
    INDEX 01 01:34:71
  TRACK 59 AUDIO
    TITLE "0:"
    INDEX 01 01:36:01
  TRACK 60 AUDIO
    TITLE "3:cjc039_3950"
    INDEX 01 01:36:60
  TRACK 61 AUDIO
    TITLE "0:"
    INDEX 01 01:39:33
  TRACK 62 AUDIO
    TITLE "2:cjc039_3951"
    INDEX 01 01:41:12
  TRACK 63 AUDIO
    TITLE "0:"
    INDEX 01 01:42:28
  TRACK 64 AUDIO
    TITLE "3:cjc039_3952"
    INDEX 01 01:43:05
  TRACK 65 AUDIO
    TITLE "0:"
    INDEX 01 01:46:00
  TRACK 66 AUDIO
    TITLE "2:cjc039_3953"
    INDEX 01 01:47:52
  TRACK 67 AUDIO
    TITLE "0:"
    INDEX 01 01:48:52
  TRACK 68 AUDIO
    TITLE "3:cjc039_3954"
    INDEX 01 01:49:26
  TRACK 69 AUDIO
    TITLE "0:"
    INDEX 01 01:52:12
  TRACK 70 AUDIO
    TITLE "2:cjc039_3955"
    INDEX 01 01:53:57
  TRACK 71 AUDIO
    TITLE "0:"
    INDEX 01 01:55:15
  TRACK 72 AUDIO
    TITLE "3:cjc039_3956"
    INDEX 01 01:55:67
  TRACK 73 AUDIO
    TITLE "0:"
    INDEX 01 01:59:48
  TRACK 74 AUDIO
    TITLE "2:cjc039_3957"
    INDEX 01 02:01:23
  TRACK 75 AUDIO
    TITLE "0:"
    INDEX 01 02:02:36
  TRACK 76 AUDIO
    TITLE "3:cjc039_3958"
    INDEX 01 02:03:14
  TRACK 77 AUDIO
    TITLE "0:"
    INDEX 01 02:06:14
  TRACK 78 AUDIO
    TITLE "2:cjc039_3959"
    INDEX 01 02:07:69
  TRACK 79 AUDIO
    TITLE "0:"
    INDEX 01 02:09:09
  TRACK 80 AUDIO
    TITLE "3:cjc039_3960"
    INDEX 01 02:09:60
  TRACK 81 AUDIO
    TITLE "0:"
    INDEX 01 02:13:09
